<svg xmlns="http://www.w3.org/2000/svg" width="800" height="600" viewBox="0 0 800 600" role="img" aria-label="VitaBridge wellness illustration">
  <rect width="800" height="600" rx="36" fill="#f4fbf8"/>
  <rect x="140" y="120" width="520" height="360" rx="28" fill="#ffffff" stroke="#cce7df" stroke-width="3"/>
  <circle cx="290" cy="280" r="88" fill="#dff4eb"/>
  <path d="M290 215c28 0 50 22 50 50 0 12-5 23-13 31l-37 41-37-41a50 50 0 0 1-13-31c0-28 22-50 50-50Z" fill="#2f7d7c"/>
  <path d="M410 235h120" stroke="#4db6ac" stroke-width="16" stroke-linecap="round"/>
  <path d="M410 285h90" stroke="#8fd4c3" stroke-width="16" stroke-linecap="round"/>
  <path d="M410 335h110" stroke="#8fd4c3" stroke-width="16" stroke-linecap="round"/>
  <path d="M240 420c44-62 120-92 182-92 58 0 106 18 154 60" stroke="#2f7d7c" stroke-width="14" fill="none" stroke-linecap="round"/>
</svg>